<svg width="150" height="117" viewBox="0 0 150 117" fill="none" xmlns="http://www.w3.org/2000/svg">
<circle cx="75" cy="54.1626" r="35.5" fill="#D6F4FA"/>
<g filter="url(#filter0_d_1_8009)">
<path d="M118.082 48.318L118.561 48.2857L118.431 46.3729C115.012 46.6036 112.315 43.9995 112.084 40.5804L41.5507 45.339C41.7814 48.758 39.458 51.7009 36.0389 51.9316L36.1679 53.8444L36.6461 53.8121C37.2439 53.7718 37.7543 54.2177 37.7946 54.8155C37.835 55.4132 37.389 55.9237 36.7913 55.964L36.337 55.9946L36.4644 57.8835L36.9426 57.8512C37.5404 57.8109 38.0508 58.2568 38.0912 58.8546C38.1315 59.4523 37.6856 59.9628 37.0878 60.0031L36.6096 60.0354L36.7516 62.1394C38.1144 62.0475 39.2885 63.0731 39.3804 64.4359C39.4724 65.7988 38.4467 66.9728 37.0839 67.0648L37.2291 69.2167L37.7072 69.1844C38.305 69.1441 38.8154 69.59 38.8558 70.1877C38.8961 70.7855 38.4502 71.2959 37.8524 71.3363L37.3742 71.3685L37.5017 73.2574L37.9799 73.2251C38.5776 73.1848 39.088 73.6307 39.1284 74.2285C39.1687 74.8262 38.7228 75.3367 38.125 75.377L37.6468 75.4092L37.7727 77.2742C41.1917 77.0435 43.8894 79.6477 44.12 83.0667L114.653 78.3082C114.423 74.8891 116.746 71.9462 120.165 71.7155L120.039 69.8506L119.561 69.8828C118.963 69.9232 118.453 69.4772 118.413 68.8795C118.372 68.2817 118.818 67.7713 119.416 67.731L119.894 67.6987L119.767 65.8098L119.289 65.8421C118.691 65.8824 118.18 65.4365 118.14 64.8388C118.1 64.241 118.546 63.7306 119.143 63.6902L119.622 63.658L119.476 61.5061C118.114 61.598 116.94 60.5724 116.848 59.2096C116.756 57.8467 117.781 56.6727 119.144 56.5807L119.002 54.4767L118.524 54.5089C117.926 54.5493 117.781 52.3974 118.379 52.3571L118.857 52.3248L118.73 50.4359L118.251 50.4682C117.654 50.5085 117.143 50.0626 117.103 49.4649C117.04 48.8926 117.508 48.3567 118.082 48.318Z" fill="#DE93B6"/>
<path d="M46.1225 76.7828L44.4046 51.3191C44.282 49.5019 45.6421 47.9451 47.4592 47.8225L106.588 43.8333C108.405 43.7107 109.962 45.0708 110.084 46.8879L111.802 72.3517C111.925 74.1688 110.565 75.7257 108.748 75.8483L49.6191 79.8375C47.802 79.9601 46.2451 78.6 46.1225 76.7828Z" fill="white"/>
<path d="M74.3097 46.011L47.4592 47.8225C45.6421 47.9451 44.282 49.5019 44.4046 51.3191L46.1225 76.7828C46.1499 77.1893 46.2491 77.5909 46.4167 77.9399L74.3097 46.011Z" fill="#FFD882"/>
<path d="M106.348 54.1774L69.8379 56.6406L70.646 68.6193L107.156 66.1562L106.348 54.1774Z" fill="white"/>
<path d="M107.464 66.4237L70.3801 68.9256L69.5332 56.373L106.617 53.8712L107.464 66.4237ZM70.9152 68.3131L106.851 65.8886L106.082 54.4837L70.1457 56.9082L70.9152 68.3131Z" fill="#74CCD8"/>
<path d="M75.7987 63.1079C75.7954 63.0601 75.8161 63.0107 75.8623 62.9836C75.9085 62.9564 75.9308 62.9309 75.9786 62.9277L76.5286 62.8906C76.5764 62.8873 76.6258 62.908 76.6513 62.9303C76.7008 62.951 76.704 62.9988 76.7072 63.0466C76.6962 63.2395 76.6836 63.4085 76.6009 63.6063C76.542 63.8024 76.4338 63.9778 76.2761 64.1325C76.1184 64.2873 75.9352 64.4198 75.7026 64.5315C75.4699 64.6433 75.1623 64.7121 74.8276 64.7347C74.5168 64.7556 74.2505 64.7256 74.005 64.646C73.7594 64.5665 73.5601 64.4599 73.3814 64.3038C73.2028 64.1477 73.0703 63.9645 72.9602 63.7558C72.8484 63.5232 72.7844 63.2873 72.7428 63.0259C72.7315 62.8585 72.6947 62.6689 72.6802 62.4537C72.6656 62.2385 72.6544 62.0711 72.6654 61.8782C72.6715 61.6136 72.7016 61.3474 72.7827 61.1257C72.8622 60.8802 72.9689 60.6809 73.1249 60.5022C73.281 60.3235 73.4642 60.1911 73.6969 60.0793C73.9295 59.9675 74.1893 59.902 74.5001 59.881C74.8588 59.8568 75.1489 59.8853 75.3945 59.9648C75.64 60.0443 75.8633 60.1493 76.0164 60.2831C76.1934 60.4153 76.3243 60.5746 76.4089 60.761C76.4935 60.9474 76.5527 61.1116 76.5895 61.3012C76.5927 61.3491 76.572 61.3985 76.5497 61.424C76.5035 61.4512 76.4812 61.4767 76.4334 61.4799L75.8835 61.517C75.8357 61.5202 75.7862 61.4995 75.7607 61.4773C75.7113 61.4566 75.6841 61.4104 75.6809 61.3625C75.6505 61.2685 75.6218 61.1984 75.5675 61.106C75.5133 61.0136 75.4367 60.9467 75.3601 60.8798C75.2596 60.8145 75.1608 60.7732 75.038 60.7334C74.9152 60.6936 74.7462 60.681 74.5789 60.6923C74.4115 60.7036 74.2458 60.7388 74.1294 60.7947C74.0131 60.8506 73.8984 60.9304 73.8092 61.0325C73.72 61.1346 73.6787 61.2334 73.6389 61.3562C73.5992 61.479 73.5849 61.624 73.5946 61.7675C73.6059 61.9349 73.5949 62.1278 73.6094 62.3429C73.6239 62.5581 73.6352 62.7255 73.672 62.9152C73.6817 63.0586 73.7392 63.1989 73.7712 63.3168C73.8271 63.4331 73.9069 63.5478 73.9834 63.6147C74.0855 63.7039 74.186 63.7692 74.3327 63.8073C74.4555 63.8471 74.6244 63.8597 74.7918 63.8484C74.9592 63.8371 75.1249 63.8019 75.2412 63.746C75.3576 63.6901 75.4739 63.6342 75.5647 63.5561C75.6555 63.4779 75.6985 63.4029 75.7637 63.3025C75.7621 63.2785 75.8051 63.2036 75.7987 63.1079Z" fill="#74CCD8"/>
<path d="M77.9237 61.4995C77.9315 61.2588 77.9632 61.0165 78.0188 60.7725C78.076 60.5525 78.2066 60.3516 78.3387 60.1745C78.4948 59.9959 78.678 59.8634 78.9107 59.7516C79.1433 59.6399 79.427 59.5727 79.7617 59.5501C80.0965 59.5275 80.3627 59.5576 80.6321 59.6355C80.9016 59.7134 81.077 59.8216 81.2557 59.9777C81.4344 60.1338 81.5668 60.317 81.6531 60.5274C81.7632 60.7361 81.8272 60.972 81.8449 61.235C81.8514 61.3306 81.8562 61.4023 81.8643 61.5219C81.8707 61.6175 81.8788 61.7371 81.8852 61.8327C81.8933 61.9523 81.8998 62.0479 81.9062 62.1435C81.9127 62.2392 81.9191 62.3348 81.9256 62.4305C81.9178 62.6712 81.8861 62.9135 81.8305 63.1574C81.7733 63.3774 81.6427 63.5784 81.5106 63.7554C81.3545 63.9341 81.1713 64.0666 80.9386 64.1783C80.706 64.2901 80.4223 64.3573 80.0876 64.3799C79.7528 64.4024 79.4627 64.374 79.2171 64.2945C78.9716 64.215 78.7722 64.1083 78.5936 63.9522C78.4149 63.7962 78.2825 63.613 78.1962 63.4026C78.11 63.1923 78.046 62.9564 78.0044 62.695C77.9979 62.5994 77.9931 62.5276 77.985 62.4081C77.9786 62.3124 77.9705 62.1929 77.9641 62.0973C77.956 61.9777 77.9495 61.8821 77.9431 61.7864C77.9127 61.6924 77.9063 61.5968 77.9237 61.4995ZM80.9396 61.3441C80.8947 61.0349 80.7813 60.7783 80.5787 60.6239C80.3762 60.4694 80.1306 60.3899 79.7959 60.4125C79.4611 60.4351 79.2285 60.5468 79.0724 60.7255C78.8924 60.9058 78.8146 61.1752 78.8116 61.4876C78.8229 61.655 78.8119 61.8479 78.8264 62.0631C78.8409 62.2783 78.8538 62.4696 78.889 62.6353C78.9339 62.9445 79.0473 63.2011 79.2499 63.3555C79.4524 63.51 79.698 63.5895 80.0088 63.5685C80.3196 63.5476 80.5762 63.4342 80.7562 63.2539C80.9362 63.0736 81.0141 62.8042 81.017 62.4917C81.0057 62.3244 81.0167 62.1315 81.0022 61.9163C80.9877 61.7011 80.9748 61.5098 80.9396 61.3441Z" fill="#74CCD8"/>
<path d="M86.916 59.1394C86.9638 59.1362 87.0132 59.1569 87.0388 59.1792C87.0643 59.2015 87.0914 59.2477 87.0946 59.2955L87.2801 62.0451C87.2995 62.332 87.2678 62.5743 87.2106 62.7944C87.1534 63.0144 87.0468 63.2137 86.8907 63.3924C86.7346 63.5711 86.5514 63.7035 86.3187 63.8153C86.0861 63.9271 85.8008 63.9703 85.49 63.9913C85.1791 64.0123 84.889 63.9838 84.6451 63.9282C84.3995 63.8487 84.2002 63.742 84.0215 63.586C83.8429 63.4299 83.7104 63.2467 83.6242 63.0363C83.5379 62.826 83.4724 62.5662 83.4546 62.3032L83.2707 59.5775C83.2675 59.5297 83.2882 59.4803 83.3105 59.4547C83.3328 59.4292 83.379 59.4021 83.4268 59.3988L83.9767 59.3617C84.0245 59.3585 84.074 59.3792 84.0995 59.4015C84.125 59.4238 84.1522 59.47 84.1554 59.5178L84.3377 62.2196C84.3506 62.4109 84.3841 62.5527 84.4416 62.693C84.4975 62.8093 84.5773 62.924 84.6778 62.9893C84.7783 63.0545 84.8788 63.1198 85.0015 63.1596C85.1243 63.1993 85.2678 63.1897 85.4112 63.18C85.5547 63.1703 85.6965 63.1367 85.8145 63.1047C85.9308 63.0488 86.0471 62.993 86.1363 62.8909C86.2271 62.8127 86.2908 62.6883 86.3305 62.5655C86.3703 62.4428 86.3829 62.2738 86.37 62.0825L86.1877 59.3807C86.1845 59.3329 86.2052 59.2835 86.2274 59.2579C86.2497 59.2324 86.296 59.2053 86.3438 59.2021L86.9176 59.1633L86.916 59.1394Z" fill="#74CCD8"/>
<path d="M90.7418 58.8814C91.2918 58.8443 91.7063 58.9364 92.0349 59.1785C92.3634 59.4205 92.5311 59.7695 92.565 60.2716C92.5988 60.7737 92.4796 61.142 92.1865 61.426C91.8934 61.7099 91.495 61.8569 90.9451 61.894L89.8692 61.9666L89.9708 63.4729C89.974 63.5207 89.9533 63.5702 89.931 63.5957C89.9087 63.6212 89.8625 63.6483 89.8147 63.6516L89.2648 63.6887C89.217 63.6919 89.1675 63.6712 89.142 63.6489C89.1165 63.6266 89.0893 63.5804 89.0861 63.5326L88.7942 59.2049C88.7909 59.1571 88.8116 59.1077 88.8339 59.0822C88.8562 59.0567 88.9024 59.0295 88.9502 59.0263L90.7435 58.9053L90.7418 58.8814ZM89.8127 61.1298L90.8408 61.0604C91.1038 61.0427 91.2919 60.9819 91.4289 60.8766C91.5659 60.7713 91.6486 60.5736 91.6325 60.3345C91.6164 60.0954 91.5317 59.9089 91.3579 59.8246C91.208 59.7386 90.9896 59.7053 90.7505 59.7215L89.7224 59.7908L89.8127 61.1298Z" fill="#74CCD8"/>
<path d="M93.7984 60.4285C93.8062 60.1878 93.8378 59.9454 93.8934 59.7015C93.9507 59.4815 94.0812 59.2805 94.2134 59.1035C94.3694 58.9248 94.5527 58.7924 94.7853 58.6806C95.0179 58.5688 95.3016 58.5016 95.6364 58.4791C95.9711 58.4565 96.2373 58.4865 96.5068 58.5644C96.7763 58.6423 96.9517 58.7506 97.1303 58.9067C97.309 59.0627 97.4415 59.246 97.5277 59.4563C97.6379 59.665 97.7018 59.9009 97.7196 60.1639C97.726 60.2596 97.7308 60.3313 97.7389 60.4508C97.7454 60.5465 97.7534 60.666 97.7599 60.7617C97.7679 60.8812 97.7744 60.9768 97.7808 61.0725C97.7873 61.1681 97.7938 61.2638 97.8002 61.3594C97.7924 61.6001 97.7607 61.8424 97.7051 62.0864C97.6479 62.3064 97.5174 62.5073 97.3852 62.6844C97.2291 62.863 97.0459 62.9955 96.8133 63.1073C96.5806 63.219 96.2969 63.2862 95.9622 63.3088C95.6275 63.3314 95.3373 63.3029 95.0918 63.2234C94.8462 63.1439 94.6469 63.0373 94.4682 62.8812C94.2896 62.7251 94.1571 62.5419 94.0709 62.3316C93.9846 62.1212 93.9207 61.8853 93.879 61.6239C93.8726 61.5283 93.8677 61.4566 93.8597 61.337C93.8532 61.2414 93.8452 61.1218 93.8387 61.0262C93.8306 60.9067 93.8242 60.811 93.8177 60.7154C93.8113 60.6197 93.8048 60.5241 93.7984 60.4285ZM96.8381 60.2714C96.7932 59.9622 96.6799 59.7057 96.4773 59.5512C96.2747 59.3967 96.0292 59.3172 95.7184 59.3382C95.4075 59.3592 95.151 59.4725 94.971 59.6528C94.791 59.8331 94.7131 60.1025 94.7102 60.415C94.7215 60.5823 94.7105 60.7752 94.725 60.9904C94.7395 61.2056 94.7524 61.3969 94.7876 61.5626C94.8325 61.8719 94.9459 62.1284 95.1484 62.2829C95.351 62.4373 95.5965 62.5168 95.9313 62.4943C96.266 62.4717 96.4987 62.3599 96.6547 62.1812C96.8347 62.001 96.9126 61.7315 96.9156 61.4191C96.9043 61.2517 96.9153 61.0588 96.9007 60.8436C96.8862 60.6284 96.8733 60.4372 96.8381 60.2714Z" fill="#74CCD8"/>
<path d="M102.534 62.7934C102.462 62.7982 102.389 62.7791 102.362 62.7329C102.335 62.6867 102.285 62.666 102.26 62.6437L100.208 59.996L100.395 62.7696C100.398 62.8174 100.377 62.8668 100.355 62.8923C100.333 62.9179 100.287 62.945 100.239 62.9482L99.6889 62.9853C99.6411 62.9885 99.5917 62.9679 99.5662 62.9456C99.5406 62.9233 99.5135 62.8771 99.5103 62.8292L99.2183 58.5016C99.2151 58.4538 99.2358 58.4043 99.2581 58.3788C99.2804 58.3533 99.3266 58.3262 99.3744 58.3229L99.8526 58.2907C99.9243 58.2858 99.9977 58.3049 100.025 58.3511C100.052 58.3973 100.101 58.418 100.127 58.4403L102.179 61.088L101.992 58.3145C101.989 58.2667 102.009 58.2172 102.032 58.1917C102.054 58.1662 102.1 58.139 102.148 58.1358L102.698 58.0987C102.746 58.0955 102.795 58.1162 102.821 58.1385C102.846 58.1608 102.873 58.207 102.876 58.2548L103.168 62.5824C103.172 62.6303 103.151 62.6797 103.129 62.7052C103.106 62.7307 103.06 62.7579 103.012 62.7611L102.534 62.7934Z" fill="#74CCD8"/>
<path d="M49.0331 68.2998C49.2707 68.2838 49.4503 68.0782 49.4343 67.8406C49.4182 67.6031 49.2127 67.4235 48.9751 67.4395C48.7375 67.4555 48.5579 67.6611 48.5739 67.8987C48.59 68.1362 48.7956 68.3158 49.0331 68.2998Z" fill="#74CCD8"/>
<path d="M52.8359 68.0435C53.0734 68.0274 53.253 67.8219 53.237 67.5843C53.221 67.3467 53.0154 67.1671 52.7778 67.1831C52.5402 67.1992 52.3606 67.4048 52.3767 67.6423C52.3927 67.8799 52.5983 68.0595 52.8359 68.0435Z" fill="#74CCD8"/>
<path d="M56.6132 67.7886C56.8508 67.7726 57.0304 67.567 57.0144 67.3294C56.9983 67.0918 56.7927 66.9122 56.5552 66.9283C56.3176 66.9443 56.138 67.1499 56.154 67.3874C56.17 67.625 56.3756 67.8046 56.6132 67.7886Z" fill="#74CCD8"/>
<path d="M60.3906 67.5335C60.6281 67.5174 60.8077 67.3118 60.7917 67.0743C60.7757 66.8367 60.5701 66.6571 60.3325 66.6731C60.0949 66.6892 59.9153 66.8947 59.9314 67.1323C59.9474 67.3699 60.153 67.5495 60.3906 67.5335Z" fill="#74CCD8"/>
<path d="M49.2323 71.2407C49.4699 71.2247 49.6495 71.0191 49.6335 70.7815C49.6175 70.544 49.4119 70.3644 49.1743 70.3804C48.9367 70.3964 48.7571 70.602 48.7732 70.8396C48.7892 71.0772 48.9948 71.2568 49.2323 71.2407Z" fill="#74CCD8"/>
<path d="M53.0351 70.9841C53.2727 70.9681 53.4523 70.7625 53.4362 70.525C53.4202 70.2874 53.2146 70.1078 52.977 70.1238C52.7395 70.1398 52.5599 70.3454 52.5759 70.583C52.5919 70.8206 52.7975 71.0002 53.0351 70.9841Z" fill="#74CCD8"/>
<path d="M56.8124 70.7293C57.05 70.7132 57.2296 70.5076 57.2136 70.2701C57.1975 70.0325 56.992 69.8529 56.7544 69.8689C56.5168 69.885 56.3372 70.0905 56.3532 70.3281C56.3693 70.5657 56.5749 70.7453 56.8124 70.7293Z" fill="#74CCD8"/>
<path d="M60.5878 70.4744C60.8254 70.4583 61.005 70.2528 60.989 70.0152C60.9729 69.7776 60.7673 69.598 60.5298 69.614C60.2922 69.6301 60.1126 69.8357 60.1286 70.0732C60.1447 70.3108 60.3502 70.4904 60.5878 70.4744Z" fill="#74CCD8"/>
<path d="M49.4316 74.1817C49.6691 74.1656 49.8487 73.96 49.8327 73.7225C49.8167 73.4849 49.6111 73.3053 49.3735 73.3213C49.136 73.3373 48.9564 73.5429 48.9724 73.7805C48.9884 74.0181 49.194 74.1977 49.4316 74.1817Z" fill="#74CCD8"/>
<path d="M53.2323 73.9251C53.4699 73.909 53.6495 73.7034 53.6335 73.4659C53.6175 73.2283 53.4119 73.0487 53.1743 73.0647C52.9367 73.0808 52.7571 73.2863 52.7732 73.5239C52.7892 73.7615 52.9948 73.9411 53.2323 73.9251Z" fill="#74CCD8"/>
<path d="M57.0097 73.6702C57.2473 73.6541 57.4269 73.4486 57.4108 73.211C57.3948 72.9734 57.1892 72.7938 56.9516 72.8098C56.7141 72.8259 56.5345 73.0315 56.5505 73.269C56.5665 73.5066 56.7721 73.6862 57.0097 73.6702Z" fill="#74CCD8"/>
<path d="M60.789 73.4153C61.0266 73.3993 61.2062 73.1937 61.1901 72.9561C61.1741 72.7185 60.9685 72.5389 60.7309 72.555C60.4934 72.571 60.3138 72.7766 60.3298 73.0142C60.3458 73.2517 60.5514 73.4313 60.789 73.4153Z" fill="#74CCD8"/>
<path d="M49.6288 77.1226C49.8664 77.1065 50.046 76.901 50.03 76.6634C50.0139 76.4258 49.8084 76.2462 49.5708 76.2622C49.3332 76.2783 49.1536 76.4839 49.1696 76.7214C49.1857 76.959 49.3913 77.1386 49.6288 77.1226Z" fill="#74CCD8"/>
<path d="M53.4296 76.866C53.6672 76.85 53.8468 76.6444 53.8308 76.4068C53.8147 76.1692 53.6091 75.9896 53.3716 76.0056C53.134 76.0217 52.9544 76.2273 52.9704 76.4648C52.9865 76.7024 53.192 76.882 53.4296 76.866Z" fill="#74CCD8"/>
<path d="M57.2089 76.6111C57.4465 76.5951 57.6261 76.3895 57.6101 76.1519C57.594 75.9143 57.3884 75.7347 57.1509 75.7508C56.9133 75.7668 56.7337 75.9724 56.7497 76.21C56.7658 76.4475 56.9713 76.6271 57.2089 76.6111Z" fill="#74CCD8"/>
<path d="M60.9863 76.3562C61.2238 76.3402 61.4034 76.1346 61.3874 75.897C61.3714 75.6595 61.1658 75.4799 60.9282 75.4959C60.6906 75.5119 60.511 75.7175 60.5271 75.9551C60.5431 76.1926 60.7487 76.3722 60.9863 76.3562Z" fill="#74CCD8"/>
<path d="M64.8708 47.8247L64.3926 47.8569L66.3944 77.5288L66.8726 77.4965L64.8708 47.8247Z" fill="url(#paint0_linear_1_8009)"/>
<path d="M50.7375 55.1193C51.7807 55.0489 52.5693 54.1462 52.4989 53.103C52.4285 52.0598 51.5258 51.2712 50.4826 51.3416C49.4394 51.4119 48.6508 52.3147 48.7212 53.3579C48.7916 54.401 49.6943 55.1897 50.7375 55.1193Z" fill="#E4E7EE"/>
<path d="M49.9834 54.2813C48.8119 54.3603 47.791 53.4685 47.7119 52.2969C47.6329 51.1253 48.5247 50.1044 49.6963 50.0254C50.8679 49.9463 51.8888 50.8382 51.9678 52.0098C52.0469 53.1813 51.1789 54.2006 49.9834 54.2813ZM49.7286 50.5036C48.82 50.5649 48.1288 51.3561 48.1901 52.2646C48.2514 53.1732 49.0426 53.8644 49.9512 53.8031C50.8597 53.7418 51.5509 52.9506 51.4896 52.042C51.4283 51.1335 50.6611 50.4407 49.7286 50.5036Z" fill="url(#paint1_linear_1_8009)"/>
</g>
<g filter="url(#filter1_d_1_8009)">
<path d="M114.734 27.4627L115.243 27.3021L114.601 25.2652C110.96 26.4133 107.355 24.3028 106.207 20.6619L31.0975 44.3463C32.2456 47.9872 30.5035 51.7837 26.8626 52.9318L27.5049 54.9687L28.0141 54.8081C28.6506 54.6074 29.3204 54.956 29.5212 55.5926C29.7219 56.2291 29.3732 56.8989 28.7367 57.0996L28.2529 57.2521L28.8872 59.2635L29.3964 59.103C30.0329 58.9023 30.7027 59.2509 30.9034 59.8874C31.1042 60.524 30.7555 61.1937 30.119 61.3945L29.6098 61.555L30.3163 63.7956C31.7676 63.338 33.3081 64.1399 33.7657 65.5911C34.2233 67.0424 33.4215 68.5829 31.9702 69.0406L32.6928 71.332L33.202 71.1715C33.8385 70.9708 34.5083 71.3194 34.709 71.9559C34.9097 72.5924 34.5611 73.2622 33.9246 73.463L33.4153 73.6235L34.0496 75.6349L34.5588 75.4744C35.1953 75.2737 35.8651 75.6223 36.0658 76.2588C36.2666 76.8954 35.9179 77.5651 35.2814 77.7659L34.7722 77.9264L35.3984 79.9124C39.0393 78.7643 42.644 80.8748 43.7921 84.5157L118.902 60.8313C117.754 57.1904 119.496 53.3939 123.137 52.2458L122.511 50.2598L122.001 50.4204C121.365 50.6211 120.695 50.2725 120.494 49.636C120.294 48.9994 120.642 48.3296 121.279 48.1289L121.788 47.9684L121.154 45.9569L120.645 46.1175C120.008 46.3182 119.338 45.9696 119.138 45.3331C118.937 44.6965 119.286 44.0267 119.922 43.826L120.431 43.6654L119.709 41.374C118.257 41.8316 116.717 41.0297 116.259 39.5784C115.802 38.1272 116.604 36.5866 118.055 36.129L117.348 33.8884L116.839 34.049C116.203 34.2497 115.48 31.9582 116.116 31.7575L116.626 31.597L115.991 29.5855L115.482 29.7461C114.846 29.9468 114.176 29.5982 113.975 28.9617C113.757 28.3586 114.123 27.6553 114.734 27.4627Z" fill="url(#paint2_linear_1_8009)"/>
<path d="M44.3086 77.1868L35.7581 50.0709C35.1479 48.1359 36.2113 46.093 38.1464 45.4828L101.111 25.6281C103.046 25.0179 105.089 26.0813 105.699 28.0163L114.25 55.1323C114.86 57.0673 113.797 59.1102 111.862 59.7203L48.8967 79.5751C46.9616 80.1853 44.9188 79.1219 44.3086 77.1868Z" fill="white"/>
<path d="M66.739 36.4667L38.1464 45.4828C36.2113 46.093 35.1479 48.1359 35.7581 50.0709L44.3086 77.1868C44.4451 77.6197 44.6579 78.0284 44.9311 78.3622L66.739 36.4667Z" fill="#FFD882"/>
<path d="M103.57 36.8895L64.6914 49.1492L68.7137 61.9051L107.593 49.6454L103.57 36.8895Z" fill="white"/>
<path d="M107.996 49.8543L68.506 62.3067L64.291 48.9397L103.781 36.4873L107.996 49.8543ZM68.9244 61.503L107.192 49.436L103.363 37.2911L65.0948 49.3581L68.9244 61.503Z" fill="#74CCD8"/>
<path d="M72.8455 54.5839C72.8294 54.5329 72.8388 54.474 72.8817 54.4325C72.9246 54.3909 72.942 54.3575 72.993 54.3414L73.5786 54.1567C73.6295 54.1407 73.6884 54.1501 73.7219 54.1675C73.7809 54.1769 73.7969 54.2278 73.813 54.2788C73.8518 54.4905 73.8825 54.6767 73.8449 54.9125C73.8327 55.1403 73.7616 55.3587 73.6316 55.5676C73.5015 55.7766 73.338 55.9681 73.1155 56.1503C72.893 56.3324 72.578 56.4877 72.2216 56.6001C71.8906 56.7045 71.5945 56.7419 71.3077 56.7203C71.021 56.6988 70.7772 56.6357 70.5428 56.5137C70.3083 56.3916 70.1168 56.2281 69.9427 56.031C69.7606 55.8085 69.6294 55.57 69.5156 55.298C69.4594 55.1197 69.3697 54.9241 69.2974 54.6949C69.2252 54.4658 69.169 54.2875 69.1302 54.0758C69.0674 53.7877 69.03 53.4916 69.0595 53.2303C69.0811 52.9436 69.1442 52.6998 69.2662 52.4654C69.3882 52.2309 69.5518 52.0394 69.7743 51.8573C69.9968 51.6751 70.2608 51.5359 70.5918 51.4315C70.9737 51.3111 71.2953 51.2657 71.582 51.2872C71.8687 51.3088 72.138 51.3638 72.339 51.4684C72.5654 51.565 72.7489 51.7031 72.8895 51.8827C73.0301 52.0623 73.1372 52.2245 73.2269 52.4201C73.243 52.471 73.2335 52.53 73.2161 52.5635C73.1732 52.605 73.1558 52.6385 73.1049 52.6545L72.5193 52.8392C72.4683 52.8553 72.4094 52.8459 72.3759 52.8284C72.317 52.819 72.2754 52.7761 72.2594 52.7252C72.2018 52.6314 72.1523 52.563 72.0692 52.4772C71.9862 52.3915 71.8857 52.3392 71.7852 52.2869C71.6593 52.2426 71.5414 52.2238 71.3981 52.213C71.2547 52.2022 71.0684 52.233 70.8902 52.2892C70.712 52.3454 70.5418 52.427 70.4305 52.5181C70.3193 52.6092 70.2161 52.7257 70.1463 52.8596C70.0766 52.9936 70.0578 53.1115 70.047 53.2549C70.0362 53.3982 70.059 53.559 70.1071 53.7118C70.1633 53.89 70.2021 54.1017 70.2744 54.3309C70.3466 54.56 70.4028 54.7383 70.4925 54.9339C70.5407 55.0867 70.6398 55.2234 70.7054 55.3427C70.7964 55.4539 70.913 55.5571 71.0134 55.6094C71.1474 55.6792 71.2733 55.7234 71.4421 55.7262C71.5855 55.737 71.7718 55.7062 71.95 55.65C72.1282 55.5938 72.2984 55.5122 72.4097 55.4211C72.5209 55.33 72.6322 55.239 72.7099 55.1305C72.7877 55.022 72.8145 54.9295 72.8588 54.8036C72.8507 54.7781 72.8776 54.6857 72.8455 54.5839Z" fill="#74CCD8"/>
<path d="M74.723 52.2842C74.6682 52.0216 74.6388 51.7509 74.6349 51.4722C74.6391 51.219 74.7276 50.9671 74.8242 50.7407C74.9462 50.5063 75.1097 50.3148 75.3322 50.1327C75.5547 49.9505 75.8442 49.8033 76.2006 49.6909C76.5571 49.5785 76.8532 49.5411 77.1654 49.5546C77.4776 49.5681 77.696 49.6392 77.9304 49.7613C78.1648 49.8833 78.3564 50.0468 78.505 50.2519C78.6791 50.4489 78.8103 50.6875 78.8986 50.9675C78.9307 51.0694 78.9548 51.1458 78.995 51.2731C79.0271 51.3749 79.0672 51.5022 79.0993 51.6041C79.1395 51.7314 79.1716 51.8332 79.2037 51.9351C79.2358 52.0369 79.2679 52.1387 79.3 52.2406C79.3549 52.5032 79.3842 52.7739 79.3881 53.0526C79.384 53.3058 79.2955 53.5577 79.1989 53.7841C79.0769 54.0185 78.9133 54.21 78.6908 54.3922C78.4683 54.5743 78.1789 54.7216 77.8224 54.834C77.466 54.9464 77.1444 54.9918 76.8577 54.9702C76.5709 54.9487 76.3271 54.8856 76.0927 54.7636C75.8582 54.6416 75.6667 54.478 75.5181 54.2729C75.3694 54.0679 75.2382 53.8293 75.1245 53.5573C75.0923 53.4554 75.0682 53.3791 75.0281 53.2518C74.996 53.1499 74.9558 53.0226 74.9237 52.9208C74.8836 52.7935 74.8515 52.6916 74.8194 52.5898C74.7618 52.496 74.7297 52.3941 74.723 52.2842ZM77.9472 51.3236C77.8173 51.0006 77.6272 50.7526 77.3673 50.6386C77.1074 50.5246 76.8207 50.5031 76.4642 50.6155C76.1078 50.7279 75.8853 50.91 75.7632 51.1444C75.6158 51.3869 75.6022 51.6991 75.6811 52.0381C75.7373 52.2163 75.7761 52.428 75.8484 52.6572C75.9206 52.8863 75.9848 53.09 76.0665 53.2602C76.1963 53.5832 76.3865 53.8311 76.6464 53.9451C76.9063 54.0591 77.193 54.0807 77.524 53.9763C77.855 53.872 78.1029 53.6818 78.2504 53.4393C78.3979 53.1969 78.4114 52.8847 78.3325 52.5457C78.2763 52.3675 78.2376 52.1557 78.1653 51.9266C78.093 51.6974 78.0288 51.4938 77.9472 51.3236Z" fill="#74CCD8"/>
<path d="M83.8389 47.3666C83.8898 47.3505 83.9488 47.3599 83.9823 47.3774C84.0157 47.3948 84.0573 47.4377 84.0733 47.4886L84.9966 50.4166C85.0929 50.7222 85.1223 50.9928 85.1182 51.2461C85.1141 51.4993 85.051 51.7431 84.929 51.9776C84.8069 52.212 84.6434 52.4035 84.4209 52.5856C84.1984 52.7678 83.9009 52.8896 83.5699 52.994C83.2389 53.0983 82.9173 53.1437 82.6386 53.1477C82.3519 53.1261 82.1081 53.063 81.8736 52.941C81.6392 52.819 81.4477 52.6554 81.299 52.4504C81.1504 52.2453 81.0112 51.9813 80.9229 51.7012L80.0076 48.7987C79.9915 48.7477 80.0009 48.6888 80.0184 48.6553C80.0358 48.6218 80.0787 48.5803 80.1296 48.5642L80.7152 48.3796C80.7661 48.3635 80.8251 48.3729 80.8586 48.3904C80.8921 48.4078 80.9336 48.4507 80.9496 48.5016L81.8569 51.3787C81.9211 51.5824 81.9947 51.7271 82.0938 51.8638C82.1849 51.9751 82.3014 52.0783 82.4274 52.1226C82.5533 52.1668 82.6792 52.2111 82.8226 52.2219C82.9659 52.2327 83.1187 52.1845 83.2715 52.1363C83.4242 52.0881 83.569 52.0145 83.6882 51.9489C83.7995 51.8578 83.9107 51.7668 83.9805 51.6328C84.0582 51.5243 84.0945 51.3729 84.1053 51.2296C84.116 51.0862 84.0853 50.8999 84.0211 50.6963L83.1138 47.8192C83.0978 47.7682 83.1072 47.7093 83.1246 47.6758C83.142 47.6423 83.1849 47.6008 83.2359 47.5847L83.8469 47.3921L83.8389 47.3666Z" fill="#74CCD8"/>
<path d="M87.9101 46.0821C88.4957 45.8975 88.9686 45.8883 89.388 46.064C89.8073 46.2397 90.0805 46.5734 90.2491 47.1081C90.4177 47.6428 90.3853 48.0729 90.1426 48.4573C89.9 48.8418 89.5073 49.1056 88.9217 49.2902L87.7759 49.6515L88.2817 51.2555C88.2978 51.3065 88.2884 51.3654 88.2709 51.3989C88.2535 51.4324 88.2106 51.4739 88.1597 51.49L87.5741 51.6746C87.5232 51.6907 87.4642 51.6813 87.4307 51.6638C87.3972 51.6464 87.3557 51.6035 87.3397 51.5526L85.8865 46.9442C85.8704 46.8932 85.8798 46.8343 85.8973 46.8008C85.9147 46.7673 85.9576 46.7258 86.0085 46.7097L87.9181 46.1076L87.9101 46.0821ZM87.4949 48.7604L88.5897 48.4151C88.8698 48.3268 89.0574 48.2117 89.1781 48.0617C89.2988 47.9116 89.3364 47.6758 89.2561 47.4212C89.1758 47.1666 89.0352 46.987 88.8248 46.9414C88.64 46.8877 88.3948 46.909 88.1401 46.9893L87.0453 47.3346L87.4949 48.7604Z" fill="#74CCD8"/>
<path d="M91.6297 46.9531C91.5749 46.6905 91.5455 46.4198 91.5416 46.1411C91.5457 45.8879 91.6343 45.636 91.7308 45.4096C91.8529 45.1752 92.0164 44.9836 92.2389 44.8015C92.4614 44.6194 92.7509 44.4721 93.1073 44.3597C93.4638 44.2473 93.7599 44.2099 94.0721 44.2235C94.3843 44.237 94.6027 44.3081 94.8371 44.4301C95.0715 44.5521 95.263 44.7157 95.4117 44.9207C95.5858 45.1178 95.717 45.3563 95.8053 45.6364C95.8374 45.7383 95.8615 45.8146 95.9016 45.9419C95.9338 46.0438 95.9739 46.1711 96.006 46.2729C96.0462 46.4002 96.0783 46.5021 96.1104 46.6039C96.1425 46.7058 96.1746 46.8076 96.2067 46.9095C96.2616 47.1721 96.2909 47.4428 96.2948 47.7215C96.2907 47.9747 96.2022 48.2266 96.1056 48.4529C95.9836 48.6874 95.82 48.8789 95.5975 49.061C95.375 49.2432 95.0856 49.3904 94.7291 49.5028C94.3727 49.6152 94.0511 49.6607 93.7643 49.6391C93.4776 49.6175 93.2338 49.5545 92.9994 49.4324C92.7649 49.3104 92.5734 49.1469 92.4248 48.9418C92.2761 48.7367 92.1449 48.4982 92.0311 48.2261C91.999 48.1243 91.9749 48.0479 91.9348 47.9206C91.9027 47.8188 91.8625 47.6915 91.8304 47.5896C91.7903 47.4623 91.7582 47.3605 91.726 47.2586C91.6939 47.1568 91.6618 47.0549 91.6297 46.9531ZM94.8793 45.9844C94.7495 45.6614 94.5593 45.4135 94.2994 45.2995C94.0395 45.1855 93.7528 45.1639 93.4218 45.2683C93.0908 45.3727 92.8429 45.5628 92.6954 45.8053C92.5479 46.0477 92.5344 46.3599 92.6133 46.6989C92.6695 46.8772 92.7082 47.0889 92.7805 47.318C92.8528 47.5472 92.917 47.7509 92.9987 47.9211C93.1285 48.244 93.3186 48.492 93.5785 48.606C93.8384 48.72 94.1251 48.7415 94.4816 48.6291C94.8381 48.5167 95.0605 48.3346 95.1826 48.1002C95.3301 47.8577 95.3436 47.5455 95.2647 47.2065C95.2085 47.0283 95.1697 46.8166 95.0975 46.5874C95.0252 46.3583 94.961 46.1546 94.8793 45.9844Z" fill="#74CCD8"/>
<path d="M101.707 47.2187C101.631 47.2427 101.546 47.2414 101.505 47.1985C101.463 47.1556 101.404 47.1462 101.371 47.1288L98.4537 44.8015L99.385 47.755C99.4011 47.8059 99.3917 47.8649 99.3742 47.8983C99.3568 47.9318 99.3139 47.9734 99.263 47.9894L98.6774 48.1741C98.6265 48.1901 98.5675 48.1807 98.534 48.1633C98.5005 48.1459 98.459 48.103 98.443 48.052L96.9898 43.4436C96.9737 43.3927 96.9831 43.3337 97.0006 43.3002C97.018 43.2668 97.0609 43.2252 97.1118 43.2092L97.621 43.0486C97.6974 43.0245 97.7818 43.0259 97.8234 43.0688C97.8649 43.1117 97.9238 43.1211 97.9573 43.1385L100.875 45.4658L99.9433 42.5123C99.9272 42.4614 99.9366 42.4024 99.954 42.3689C99.9715 42.3354 100.014 42.2939 100.065 42.2779L100.651 42.0932C100.702 42.0771 100.761 42.0866 100.794 42.104C100.828 42.1214 100.869 42.1643 100.885 42.2152L102.338 46.8237C102.355 46.8746 102.345 46.9335 102.328 46.967C102.31 47.0005 102.267 47.042 102.216 47.0581L101.707 47.2187Z" fill="#74CCD8"/>
<path d="M45.2297 67.2389C45.4829 67.1591 45.6233 66.8892 45.5435 66.6361C45.4637 66.383 45.1938 66.2425 44.9407 66.3223C44.6876 66.4021 44.5471 66.672 44.6269 66.9251C44.7068 67.1782 44.9766 67.3187 45.2297 67.2389Z" fill="#74CCD8"/>
<path d="M49.2805 65.962C49.5336 65.8822 49.6741 65.6123 49.5943 65.3592C49.5145 65.1061 49.2446 64.9656 48.9915 65.0454C48.7384 65.1252 48.5979 65.3951 48.6777 65.6482C48.7575 65.9014 49.0274 66.0418 49.2805 65.962Z" fill="#74CCD8"/>
<path d="M53.3001 64.694C53.5532 64.6141 53.6937 64.3443 53.6138 64.0911C53.534 63.838 53.2641 63.6975 53.011 63.7774C52.7579 63.8572 52.6174 64.1271 52.6972 64.3802C52.7771 64.6333 53.0469 64.7738 53.3001 64.694Z" fill="#74CCD8"/>
<path d="M57.3255 63.4252C57.5786 63.3453 57.719 63.0755 57.6392 62.8223C57.5594 62.5692 57.2895 62.4287 57.0364 62.5086C56.7833 62.5884 56.6428 62.8583 56.7226 63.1114C56.8025 63.3645 57.0723 63.505 57.3255 63.4252Z" fill="#74CCD8"/>
<path d="M46.218 70.3705C46.4711 70.2907 46.6116 70.0208 46.5318 69.7677C46.452 69.5145 46.1821 69.3741 45.929 69.4539C45.6759 69.5337 45.5354 69.8036 45.6152 70.0567C45.695 70.3098 45.9649 70.4503 46.218 70.3705Z" fill="#74CCD8"/>
<path d="M50.2649 69.0941C50.518 69.0143 50.6585 68.7444 50.5787 68.4913C50.4989 68.2382 50.229 68.0977 49.9759 68.1775C49.7228 68.2573 49.5823 68.5272 49.6621 68.7803C49.7419 69.0334 50.0118 69.1739 50.2649 69.0941Z" fill="#74CCD8"/>
<path d="M54.2883 67.8255C54.5415 67.7457 54.6819 67.4758 54.6021 67.2227C54.5223 66.9696 54.2524 66.8291 53.9993 66.909C53.7462 66.9888 53.6057 67.2587 53.6855 67.5118C53.7653 67.7649 54.0352 67.9054 54.2883 67.8255Z" fill="#74CCD8"/>
<path d="M58.3118 66.5567C58.5649 66.4769 58.7054 66.207 58.6256 65.9539C58.5457 65.7008 58.2759 65.5603 58.0228 65.6402C57.7696 65.72 57.6292 65.9899 57.709 66.243C57.7888 66.4961 58.0587 66.6366 58.3118 66.5567Z" fill="#74CCD8"/>
<path d="M47.2044 73.5023C47.4575 73.4225 47.598 73.1526 47.5181 72.8995C47.4383 72.6464 47.1684 72.5059 46.9153 72.5857C46.6622 72.6655 46.5217 72.9354 46.6015 73.1885C46.6814 73.4416 46.9512 73.5821 47.2044 73.5023Z" fill="#74CCD8"/>
<path d="M51.2532 72.2257C51.5063 72.1459 51.6468 71.876 51.567 71.6229C51.4872 71.3698 51.2173 71.2293 50.9642 71.3091C50.711 71.3889 50.5706 71.6588 50.6504 71.9119C50.7302 72.165 51.0001 72.3055 51.2532 72.2257Z" fill="#74CCD8"/>
<path d="M55.2766 70.9571C55.5297 70.8773 55.6702 70.6074 55.5904 70.3543C55.5106 70.1012 55.2407 69.9607 54.9876 70.0405C54.7345 70.1204 54.594 70.3902 54.6738 70.6434C54.7536 70.8965 55.0235 71.037 55.2766 70.9571Z" fill="#74CCD8"/>
<path d="M59.3001 69.6886C59.5532 69.6088 59.6937 69.3389 59.6138 69.0858C59.534 68.8327 59.2641 68.6922 59.011 68.772C58.7579 68.8518 58.6174 69.1217 58.6972 69.3748C58.7771 69.6279 59.047 69.7684 59.3001 69.6886Z" fill="#74CCD8"/>
<path d="M48.1926 76.6339C48.4458 76.5541 48.5862 76.2842 48.5064 76.0311C48.4266 75.778 48.1567 75.6375 47.9036 75.7173C47.6505 75.7971 47.51 76.067 47.5898 76.3201C47.6696 76.5732 47.9395 76.7137 48.1926 76.6339Z" fill="#74CCD8"/>
<path d="M52.2415 75.3573C52.4946 75.2775 52.6351 75.0076 52.5553 74.7545C52.4754 74.5014 52.2055 74.3609 51.9524 74.4407C51.6993 74.5205 51.5588 74.7904 51.6387 75.0435C51.7185 75.2966 51.9884 75.4371 52.2415 75.3573Z" fill="#74CCD8"/>
<path d="M56.263 74.089C56.5161 74.0092 56.6565 73.7393 56.5767 73.4862C56.4969 73.2331 56.227 73.0926 55.9739 73.1724C55.7208 73.2522 55.5803 73.5221 55.6601 73.7752C55.74 74.0283 56.0098 74.1688 56.263 74.089Z" fill="#74CCD8"/>
<path d="M60.2883 72.8202C60.5415 72.7404 60.6819 72.4705 60.6021 72.2174C60.5223 71.9643 60.2524 71.8238 59.9993 71.9036C59.7462 71.9834 59.6057 72.2533 59.6855 72.5064C59.7653 72.7595 60.0352 72.9 60.2883 72.8202Z" fill="#74CCD8"/>
<path d="M56.9975 40.9097L56.4883 41.0703L66.4518 72.6674L66.961 72.5068L56.9975 40.9097Z" fill="url(#paint3_linear_1_8009)"/>
<path d="M43.6139 52.5207C44.7248 52.1704 45.3414 50.9859 44.9911 49.875C44.6408 48.7641 43.4563 48.1475 42.3454 48.4978C41.2345 48.8481 40.618 50.0326 40.9682 51.1435C41.3185 52.2544 42.503 52.8709 43.6139 52.5207Z" fill="#E4E7EE"/>
<path d="M42.5779 51.8114C41.3303 52.2048 39.9908 51.5075 39.5974 50.2599C39.204 49.0123 39.9013 47.6728 41.1488 47.2794C42.3964 46.8859 43.736 47.5832 44.1294 48.8308C44.5228 50.0784 43.851 51.41 42.5779 51.8114ZM41.3094 47.7886C40.3419 48.0937 39.8015 49.1318 40.1066 50.0994C40.4117 51.0669 41.4498 51.6073 42.4174 51.3022C43.3849 50.9971 43.9253 49.9589 43.6202 48.9914C43.3151 48.0239 42.3024 47.4755 41.3094 47.7886Z" fill="url(#paint4_linear_1_8009)"/>
</g>
<defs>
<filter id="filter0_d_1_8009" x="32.0391" y="38.5803" width="92.126" height="50.4863" filterUnits="userSpaceOnUse" color-interpolation-filters="sRGB">
<feFlood flood-opacity="0" result="BackgroundImageFix"/>
<feColorMatrix in="SourceAlpha" type="matrix" values="0 0 0 0 0 0 0 0 0 0 0 0 0 0 0 0 0 0 127 0" result="hardAlpha"/>
<feOffset dy="2"/>
<feGaussianBlur stdDeviation="2"/>
<feComposite in2="hardAlpha" operator="out"/>
<feColorMatrix type="matrix" values="0 0 0 0 0.929412 0 0 0 0 0.607843 0 0 0 0 0.756863 0 0 0 0.2 0"/>
<feBlend mode="normal" in2="BackgroundImageFix" result="effect1_dropShadow_1_8009"/>
<feBlend mode="normal" in="SourceGraphic" in2="effect1_dropShadow_1_8009" result="shape"/>
</filter>
<filter id="filter1_d_1_8009" x="0.862793" y="0.661865" width="148.274" height="115.854" filterUnits="userSpaceOnUse" color-interpolation-filters="sRGB">
<feFlood flood-opacity="0" result="BackgroundImageFix"/>
<feColorMatrix in="SourceAlpha" type="matrix" values="0 0 0 0 0 0 0 0 0 0 0 0 0 0 0 0 0 0 127 0" result="hardAlpha"/>
<feOffset dy="6"/>
<feGaussianBlur stdDeviation="13"/>
<feComposite in2="hardAlpha" operator="out"/>
<feColorMatrix type="matrix" values="0 0 0 0 0.413453 0 0 0 0 0.472629 0 0 0 0 0.5875 0 0 0 0.05 0"/>
<feBlend mode="normal" in2="BackgroundImageFix" result="effect1_dropShadow_1_8009"/>
<feBlend mode="normal" in="SourceGraphic" in2="effect1_dropShadow_1_8009" result="shape"/>
</filter>
<linearGradient id="paint0_linear_1_8009" x1="64.6317" y1="47.8408" x2="66.6335" y2="77.5126" gradientUnits="userSpaceOnUse">
<stop stop-color="#ED9BC1"/>
<stop offset="1" stop-color="#ED9BB9"/>
</linearGradient>
<linearGradient id="paint1_linear_1_8009" x1="49.6963" y1="50.0254" x2="49.9834" y2="54.2813" gradientUnits="userSpaceOnUse">
<stop stop-color="#ED9BC1"/>
<stop offset="1" stop-color="#ED9BB9"/>
</linearGradient>
<linearGradient id="paint2_linear_1_8009" x1="68.6652" y1="32.5001" x2="81.3343" y2="72.6775" gradientUnits="userSpaceOnUse">
<stop stop-color="#ED9BC1"/>
<stop offset="1" stop-color="#ED9BB9"/>
</linearGradient>
<linearGradient id="paint3_linear_1_8009" x1="56.7429" y1="40.99" x2="66.7064" y2="72.5871" gradientUnits="userSpaceOnUse">
<stop stop-color="#ED9BC1"/>
<stop offset="1" stop-color="#ED9BB9"/>
</linearGradient>
<linearGradient id="paint4_linear_1_8009" x1="41.1488" y1="47.2794" x2="42.5779" y2="51.8114" gradientUnits="userSpaceOnUse">
<stop stop-color="#ED9BC1"/>
<stop offset="1" stop-color="#ED9BB9"/>
</linearGradient>
</defs>
</svg>
